<?xml version="1.0" ?><svg height="22px" version="1.1" viewBox="0 0 16 22" width="16px" xmlns="http://www.w3.org/2000/svg" xmlns:sketch="http://www.bohemiancoding.com/sketch/ns" xmlns:xlink="http://www.w3.org/1999/xlink"><title/><defs><path d="M0,2 L0,20 C0,22 2.06060606,22 2.06060606,22 L13.9393939,22 C13.9393939,22 16,22 16,20 L16,2 C16,0 13.9393939,0 13.9393939,0 L2.06060606,0 C2.06060606,0 0,0 0,2 Z M1,2.03450212 L1,17.9654979 C1,19 2.11111111,19 2.11111111,19 L13.8888889,19 C13.8888889,19 15,19 15,17.9654979 L15,2.03450212 C15,1 13.8888889,1 13.8888889,1 L2.11111111,1 C2.11111111,1 1,1 1,2.03450212 Z M8.74932481,20.4942627 C8.74932481,20.0800492 8.40249596,19.7442627 7.97466088,19.7442627 C7.54682578,19.7442627 7.19999695,20.0800492 7.19999695,20.4942627 C7.19999695,20.9084763 7.54682578,21.2442627 7.97466088,21.2442627 C8.40249596,21.2442627 8.74932481,20.9084763 8.74932481,20.4942627 Z" id="path-1"/></defs><g fill="none" fill-rule="evenodd" id="miu" stroke="none" stroke-width="1"><g id="device_tablet_ipad_vertical_glyph"><use fill="#ffffff" fill-rule="evenodd" xlink:href="#path-1"/><use fill="none" xlink:href="#path-1"/></g></g></svg>